<svg width="135" height="40" viewBox="0 0 135 40" fill="none" xmlns="http://www.w3.org/2000/svg">
<path d="M56.4375 27.4062C55.7188 27.4062 55.125 26.8125 55.125 26.125C55.125 25.4062 55.7188 24.8438 56.4063 24.8438H69.0312C69.9375 24.8438 70.6563 24.0938 70.6563 23.2188C70.6563 22.3438 69.9375 21.5938 69.0312 21.5938H59.3438C57 21.5938 55.125 19.6875 55.125 17.375C55.125 15.0625 57 13.1562 59.3125 13.1562H71.875C72.5938 13.1562 73.1875 13.75 73.1875 14.4375C73.1875 15.1563 72.5938 15.7188 71.9063 15.7188H59.3125C58.4375 15.75 57.7188 16.5 57.7188 17.3438C57.7188 18.25 58.4375 18.9688 59.3438 18.9688H69.0312C71.3438 18.9688 73.25 20.875 73.2813 23.2188C73.2813 25.5313 71.375 27.4375 69.0625 27.4375H56.4375V27.4062Z" fill="white"/>
<path d="M95.6875 17.2812C95.6563 19.5938 97.5312 21.5 99.8125 21.5313H106.344C107.062 21.5313 107.625 20.9375 107.625 20.25C107.625 19.5313 107.031 18.9688 106.344 18.9688H99.8125C98.9687 18.9688 98.25 18.2188 98.25 17.3438V14.4375C98.25 13.7188 97.6562 13.1562 96.9687 13.1562C96.2812 13.1562 95.6875 13.75 95.6875 14.4375V17.1875V17.2188V17.2812Z" fill="white"/>
<path d="M111.75 13.0938C111.031 13.0938 110.469 13.6875 110.469 14.375V20.2187C110.469 22.7187 108.406 24.7812 105.906 24.7812H96.8125C96.0937 24.7812 95.5312 25.375 95.5312 26.0625C95.5312 26.7812 96.125 27.3438 96.8125 27.3438H105.906C109.844 27.3438 113.031 24.125 113.031 20.1875V14.4062C113.031 13.6875 112.469 13.0938 111.75 13.0938Z" fill="white"/>
<path d="M42.1875 27.3438C38.25 27.3438 35.0312 24.125 35.0312 20.1875C35.0312 16.25 38.25 13.0312 42.1875 13.0312H48.75C51.0938 13.0312 52.9688 14.9375 52.9688 17.25C52.9688 19.5938 51.0625 21.4687 48.75 21.4687H42.125C41.4063 21.4687 40.8437 20.875 40.8437 20.1875C40.8437 19.4687 41.4375 18.9062 42.125 18.9062H48.75C49.6563 18.9062 50.375 18.1562 50.375 17.2812C50.375 16.375 49.6563 15.6562 48.75 15.6562H42.1875C39.6563 15.6562 37.5938 17.7188 37.5938 20.25C37.5938 22.75 39.6563 24.7813 42.1875 24.7813H51.625C52.3438 24.7813 52.9063 25.375 52.9063 26.0625C52.9063 26.7812 52.3125 27.3438 51.625 27.3438H42.1875Z" fill="white"/>
<path d="M131.938 24.75H122.5C119.969 24.75 117.906 22.7188 117.906 20.2187C117.906 17.6875 119.969 15.625 122.5 15.625H129.062C129.969 15.625 130.688 16.3438 130.688 17.25C130.688 18.1563 129.969 18.875 129.062 18.875H122.437C121.719 18.875 121.156 19.4688 121.156 20.1563C121.156 20.875 121.75 21.4375 122.437 21.4375H129.062C131.406 21.4375 133.281 19.5312 133.281 17.2188C133.281 14.875 131.375 13 129.062 13H122.5C118.562 13 115.344 16.2188 115.344 20.1563C115.344 24.0938 118.562 27.3125 122.5 27.3125H131.938C132.656 27.3125 133.219 26.7188 133.219 26.0313C133.219 25.3438 132.656 24.75 131.938 24.75Z" fill="white"/>
<path d="M82.2188 27.3438C78.2813 27.3438 75.0625 24.125 75.0625 20.1875C75.0625 16.25 78.2813 13.0312 82.2188 13.0312H88.7813C91.125 13.0312 93 14.9375 93 17.25C93 19.5938 91.0938 21.4687 88.7813 21.4687H82.1875C81.4688 21.4687 80.9062 20.875 80.9062 20.1875C80.9062 19.4687 81.5 18.9062 82.1875 18.9062H88.8125C89.7188 18.9062 90.4375 18.1562 90.4375 17.2812C90.4375 16.375 89.7188 15.6562 88.8125 15.6562H82.25C79.7188 15.6562 77.6563 17.7188 77.6563 20.25C77.6563 22.75 79.7188 24.7813 82.25 24.7813H91.6875C92.4062 24.7813 92.9688 25.375 92.9688 26.0625C92.9688 26.7812 92.375 27.3438 91.6875 27.3438H82.2188Z" fill="white"/>
<path fill-rule="evenodd" clip-rule="evenodd" d="M29.8125 34.9688C29.375 35.2188 28.9062 35.5 28.5625 35.75C28.2812 35.9688 27.9062 36.1562 27.5312 36.3125C27.125 36.4687 27.125 36.4688 26.6875 36.6563C26.2812 36.8125 25.9375 36.875 25.75 36.8438C25.5 36.7813 25.0312 36.8125 24.4687 36.9688C23.5625 37.1563 22.875 37.5313 22.9062 37.75C22.9375 37.8438 23.4062 37.8125 24 37.6563C24.3125 37.5938 24.5937 37.5 24.875 37.4375C25.1562 37.3438 25.4062 37.2813 25.5625 37.2188C25.8125 37.0938 26.2187 36.9375 26.5937 36.8125C27 36.6563 27 36.6562 27.4062 36.4687C27.7187 36.3437 27.9375 36.2187 28.0937 36.1562C28.9687 35.6875 29.8125 35.1875 30.5937 34.5937C30.6562 34.5312 30.375 34.6563 29.8125 34.9688Z" fill="url(#paint0_linear_142_76)"/>
<path fill-rule="evenodd" clip-rule="evenodd" d="M20.125 37.6562C19.5313 37.6875 19.125 37.7813 18.9062 37.9063C18.75 37.9688 18.4062 38 18 38C17.5625 37.9687 17.5625 37.9688 17.125 37.9375C16.7187 37.875 16.3125 37.8125 15.9687 37.7187C15.5625 37.5937 15.0625 37.4375 14.5938 37.3438C14.125 37.2187 13.875 37.1875 13.8125 37.1875C14.7812 37.5312 15.7812 37.7812 16.8125 37.9688C16.9375 38 17.0937 38 17.2812 38.0312C17.7187 38.0937 17.7187 38.0938 18.1562 38.125C18.5625 38.1562 18.9687 38.1875 19.25 38.2188C19.375 38.2188 19.5 38.2188 19.6562 38.2188C20.125 38.2188 20.5937 38.2187 21.0938 38.1875C21.625 38.125 22 38.0625 21.9062 37.9688C21.875 37.7188 21.0313 37.5938 20.125 37.6562Z" fill="url(#paint1_linear_142_76)"/>
<path fill-rule="evenodd" clip-rule="evenodd" d="M27.5938 34.0938C27 34.2813 26.4375 34.6563 26.125 35.0313C25.8437 35.3438 25.4375 35.5938 24.9375 35.7188C24.4062 35.8438 24.4062 35.8438 23.875 35.9688C23.375 36.0625 22.9063 36.0313 22.5938 35.8438C22.2188 35.5938 21.5937 35.5 20.9375 35.5938C19.9062 35.7188 19.2187 36.2813 19.4062 36.8125C19.5937 37.25 20.4687 37.5 21.4062 37.4063C22 37.3125 22.5 37.125 22.75 36.875C23 36.625 23.4062 36.4375 23.9062 36.3438C24.4375 36.2188 24.4375 36.2188 24.9375 36.0938C25.4375 35.9688 25.8437 35.9688 26.0937 36.0625C26.375 36.1875 26.8125 36.125 27.3437 35.9375C28.1562 35.625 28.9375 35 29.0625 34.5313C29.1875 34 28.5 33.7813 27.5938 34.0938Z" fill="url(#paint2_linear_142_76)"/>
<path fill-rule="evenodd" clip-rule="evenodd" d="M16.1562 35.9375C15.5625 35.9375 15.125 36.0938 15 36.3438C14.875 36.5313 14.5937 36.5938 14.1562 36.5313C13.7187 36.4688 13.7187 36.4688 13.2812 36.4063C12.9062 36.3438 12.4687 36.1563 12.0937 35.9375C11.6562 35.6563 11.1562 35.4063 10.7187 35.2813C10.0937 35.0625 9.96874 35.1875 10.4062 35.5312C10.5 35.5937 10.5937 35.6562 10.6875 35.6875C11.1562 35.9687 11.6562 36.2187 12.1562 36.4687C12.1875 36.4687 12.2187 36.5 12.25 36.5C12.6562 36.6563 12.875 36.7188 12.9062 36.6563C12.9687 36.5938 13.1875 36.5938 13.5625 36.6875C14 36.7813 14 36.7813 14.4062 36.8438C14.8437 36.9063 15.25 37.0312 15.625 37.2188C16.0625 37.4062 16.5937 37.5313 17.1562 37.5938C18.0312 37.625 18.5937 37.3438 18.375 36.9062C18.0937 36.3438 17.125 35.9063 16.1562 35.9375Z" fill="url(#paint3_linear_142_76)"/>
<path fill-rule="evenodd" clip-rule="evenodd" d="M23.9687 31.7188C23.25 31.875 22.6875 32.2813 22.4062 32.7813C22.1562 33.1875 21.6875 33.4688 21.125 33.5625C20.5312 33.6563 20.5312 33.6563 19.9375 33.7188C19.375 33.7813 18.8437 33.6562 18.4375 33.3437C17.9687 32.9687 17.2812 32.75 16.5937 32.8125C15.5312 32.9063 14.9062 33.625 15.1875 34.4062C15.4687 35.125 16.5 35.625 17.5 35.5938C18.125 35.5625 18.625 35.3125 18.875 34.9375C19.0937 34.5938 19.5 34.375 20.0625 34.3125C20.625 34.2188 20.625 34.2188 21.2187 34.1563C21.7812 34.0625 22.2812 34.1562 22.6562 34.4375C23.0625 34.7187 23.6875 34.8438 24.3437 34.6875C25.375 34.4375 26.1562 33.6562 26.0937 32.875C26.0312 32 25.0625 31.4688 23.9687 31.7188Z" fill="url(#paint4_linear_142_76)"/>
<path fill-rule="evenodd" clip-rule="evenodd" d="M11.7812 32.9687C11.2187 32.9375 10.8437 33.1562 10.75 33.5C10.6562 33.7812 10.4062 33.875 10.0312 33.8125C9.65624 33.75 9.65624 33.75 9.24999 33.6562C8.90624 33.5625 8.53124 33.3437 8.18749 33C7.78124 32.625 7.34374 32.2812 6.99999 32.1875C6.49999 31.9687 6.53124 32.25 6.99999 32.7812C7.46874 33.25 8.15624 33.875 8.59374 34.1875C8.90624 34.375 9.06249 34.3437 9.03124 34.1875C9.03124 34.0312 9.21874 34 9.53124 34.0625C9.90624 34.1562 9.90624 34.1562 10.2812 34.25C10.6562 34.3125 11.0937 34.5312 11.4687 34.8437C11.9062 35.1562 12.4687 35.4062 13 35.5C13.875 35.5937 14.3437 35.125 14.0625 34.4062C13.75 33.625 12.7187 32.9687 11.7812 32.9687Z" fill="url(#paint5_linear_142_76)"/>
<path fill-rule="evenodd" clip-rule="evenodd" d="M19.4062 28.1563C18.6562 28.2813 18.0625 28.7188 17.7812 29.3125C17.5625 29.8125 17.0937 30.125 16.5 30.1875C15.9062 30.25 15.9062 30.25 15.2812 30.3125C14.7187 30.375 14.1875 30.1563 13.75 29.75C13.25 29.2813 12.5937 29 11.9375 29.0625C10.9062 29.125 10.375 29.9688 10.7187 30.9375C11.0312 31.8438 12.0625 32.5625 13.0312 32.5313C13.6562 32.5313 14.125 32.2188 14.3437 31.75C14.5312 31.3438 14.9375 31.0625 15.5 31C16.0937 30.9375 16.0937 30.9375 16.7187 30.875C17.3125 30.8125 17.8437 30.9688 18.2812 31.3438C18.75 31.75 19.4375 31.9688 20.1875 31.875C21.3125 31.6875 22.125 30.75 21.9687 29.7188C21.75 28.6875 20.5937 27.9688 19.4062 28.1563Z" fill="url(#paint6_linear_142_76)"/>
<path fill-rule="evenodd" clip-rule="evenodd" d="M7.59374 29.1875C7.12499 29.1563 6.84374 29.4375 6.78124 29.8438C6.74999 30.2188 6.56249 30.375 6.24999 30.3125C5.93749 30.25 5.93749 30.25 5.68749 30.1875C5.43749 30.0938 5.15624 29.8438 4.87499 29.4688C4.59374 29.0625 4.28124 28.7188 4.09374 28.625C3.90624 28.5 3.96874 28.7188 4.15624 29.125C4.49999 29.6875 4.84374 30.25 5.21874 30.7813C5.31249 30.9063 5.40624 31.0313 5.46874 31.0938C5.65624 31.2813 5.71874 31.1875 5.62499 30.9375C5.56249 30.7188 5.65624 30.625 5.90624 30.6875C6.18749 30.7813 6.18749 30.7813 6.46874 30.8438C6.74999 30.9063 7.12499 31.1563 7.46874 31.5313C7.87499 31.9375 8.37499 32.25 8.81249 32.3438C9.59374 32.4375 9.96874 31.8125 9.62499 30.9375C9.34374 30 8.40624 29.2188 7.59374 29.1875Z" fill="url(#paint7_linear_142_76)"/>
<path fill-rule="evenodd" clip-rule="evenodd" d="M28.1562 21.5C27.4375 21.6563 26.875 22.1563 26.5937 22.8125C26.3437 23.375 25.875 23.7813 25.2812 23.875C24.6562 24 24.6562 24 24 24.125C23.375 24.25 22.8125 24.0625 22.375 23.625C21.875 23.0938 21.125 22.8438 20.3437 22.9688C19.0937 23.1875 18.2812 24.3438 18.5 25.5625C18.7187 26.75 19.875 27.5 21.0937 27.3125C21.8437 27.1875 22.4687 26.6875 22.75 26.0625C23 25.5 23.5 25.125 24.125 25C24.7812 24.875 24.7812 24.875 25.4062 24.75C26 24.625 26.5312 24.7813 26.9375 25.2188C27.375 25.6875 28.0312 25.9063 28.7187 25.75C29.7812 25.4688 30.5 24.375 30.375 23.25C30.2187 22.0313 29.25 21.2813 28.1562 21.5Z" fill="url(#paint8_linear_142_76)"/>
<path fill-rule="evenodd" clip-rule="evenodd" d="M14.5312 23.9375C13.7812 24.0625 13.25 24.5313 13 25.1563C12.7812 25.6875 12.375 26.0313 11.8125 26.0938C11.25 26.1563 11.25 26.1563 10.6875 26.2188C10.1875 26.2813 9.6875 26.0625 9.28125 25.625C8.84375 25.125 8.25 24.8125 7.6875 24.9063C6.84375 25 6.40625 25.9063 6.65625 26.9375C6.9375 27.9375 7.84375 28.7188 8.65625 28.7188C9.21875 28.6875 9.625 28.3438 9.8125 27.8125C9.96875 27.3438 10.3437 27.0313 10.8437 27C11.4062 26.9375 11.4062 26.9375 11.9687 26.875C12.5312 26.8125 13.0625 27.0313 13.4687 27.4375C13.9687 27.9375 14.6562 28.2188 15.375 28.125C16.5625 27.9688 17.3125 26.9063 17.0937 25.75C16.875 24.5938 15.7187 23.75 14.5312 23.9375Z" fill="url(#paint9_linear_142_76)"/>
<path fill-rule="evenodd" clip-rule="evenodd" d="M4.25 25.2188C3.9375 25.25 3.75 25.5313 3.71875 26C3.71875 26.375 3.59375 26.5313 3.4375 26.5313C3.28125 26.5 3.28125 26.5 3.15625 26.4688C3.03125 26.4063 2.90625 26.1875 2.75 25.8438C2.625 25.5 2.53125 25.25 2.46875 25.125C2.71875 26 3.03125 26.875 3.40625 27.6875C3.375 27.625 3.34375 27.5313 3.28125 27.375C3.1875 27.0938 3.1875 26.9688 3.3125 27.0313C3.4375 27.0938 3.4375 27.0938 3.625 27.1563C3.8125 27.1875 4.03125 27.4375 4.28125 27.8125C4.59375 28.25 4.9375 28.5938 5.28125 28.625C5.84375 28.6875 6.125 27.9688 5.84375 27C5.5625 25.9688 4.84375 25.1875 4.25 25.2188Z" fill="url(#paint10_linear_142_76)"/>
<path fill-rule="evenodd" clip-rule="evenodd" d="M23.4687 17.1875C22.6875 17.3125 22.0937 17.8125 21.8125 18.5C21.5625 19.0938 21.0625 19.4688 20.4375 19.5938C19.7812 19.7188 19.7812 19.7188 19.0937 19.8438C18.4687 19.9688 17.875 19.75 17.4375 19.3125C16.9375 18.7813 16.1875 18.5 15.4375 18.6563C14.25 18.875 13.4375 20.0625 13.6562 21.2813C13.875 22.5 15.0312 23.3125 16.2187 23.125C17 23 17.5937 22.5 17.875 21.8125C18.125 21.2188 18.625 20.8438 19.25 20.7188C19.9375 20.5938 19.9375 20.5938 20.5937 20.4688C21.2187 20.3438 21.8125 20.5625 22.25 21C22.75 21.5313 23.5 21.8125 24.25 21.6563C25.4375 21.4375 26.25 20.25 26.0312 19.0313C25.8125 17.8125 24.6875 16.9688 23.4687 17.1875Z" fill="url(#paint11_linear_142_76)"/>
<path fill-rule="evenodd" clip-rule="evenodd" d="M9.96875 19.6563C9.3125 19.7813 8.8125 20.2813 8.59375 20.9063C8.40625 21.4375 8.03125 21.7813 7.5625 21.875C7.09375 21.9688 7.09375 21.9688 6.625 22.0625C6.21875 22.125 5.8125 21.9375 5.53125 21.5313C5.21875 21.0625 4.78125 20.8125 4.375 20.9063C3.78125 21.0625 3.4375 22 3.625 22.9688C3.8125 23.9375 4.4375 24.6875 5.0625 24.6563C5.5 24.625 5.8125 24.2188 5.9375 23.6875C6.0625 23.2188 6.375 22.9063 6.78125 22.8125C7.25 22.7188 7.25 22.7188 7.71875 22.6563C8.1875 22.5938 8.65625 22.7813 9.03125 23.2188C9.46875 23.75 10.0937 24.0313 10.75 23.9375C11.8125 23.7813 12.5625 22.6563 12.3437 21.4688C12.0937 20.25 11.0625 19.4375 9.96875 19.6563Z" fill="url(#paint12_linear_142_76)"/>
<path fill-rule="evenodd" clip-rule="evenodd" d="M2.21875 21.5625C2.0625 21.625 2 21.9688 2.03125 22.375C2.0625 22.75 2.03125 22.9688 2.03125 22.9688C2.03125 23.0625 2.0625 23.1563 2.0625 23.25C2.09375 23.3438 2.09375 23.4375 2.125 23.5313C2.15625 23.5313 2.21875 23.7188 2.34375 24.0938C2.5 24.5 2.65625 24.7813 2.8125 24.8125C3.125 24.8125 3.28125 24.0313 3.09375 23.0938C2.9375 22.125 2.53125 21.4375 2.21875 21.5625Z" fill="url(#paint13_linear_142_76)"/>
<path fill-rule="evenodd" clip-rule="evenodd" d="M18.5625 12.9375C17.8125 13.0625 17.1875 13.5625 16.9062 14.2188C16.6562 14.7813 16.1562 15.1563 15.5625 15.2813C14.9062 15.4063 14.9063 15.4063 14.2813 15.5313C13.6875 15.6563 13.1562 15.5 12.75 15.0625C12.3125 14.5938 11.6562 14.375 10.9687 14.5313C9.90625 14.8125 9.1875 15.9063 9.3125 17.0312C9.46875 18.1875 10.4375 18.9375 11.5313 18.7188C12.25 18.5625 12.8125 18.0625 13.0938 17.4063C13.3438 16.8438 13.8125 16.4375 14.4062 16.3125C15.0625 16.1875 15.0625 16.1875 15.6875 16.0625C16.3125 15.9375 16.875 16.125 17.3125 16.5625C17.8125 17.0938 18.5625 17.3437 19.3438 17.2187C20.5938 17 21.4063 15.8438 21.1875 14.625C20.9375 13.5 19.7813 12.7188 18.5625 12.9375Z" fill="url(#paint14_linear_142_76)"/>
<path fill-rule="evenodd" clip-rule="evenodd" d="M6.40625 15.8438C5.90625 16.0313 5.5 16.5 5.28125 17.0625C5.09375 17.5625 4.8125 17.9375 4.46875 18.0625C4.125 18.1875 4.125 18.1875 3.8125 18.3125C3.53125 18.4375 3.28125 18.3125 3.15625 17.9688C3 17.5938 2.78125 17.4375 2.5625 17.5938C2.28125 17.8438 2.0625 18.7188 2.0625 19.5625C2.09375 20.4375 2.34375 21.0625 2.6875 20.9375C2.9375 20.8438 3.15625 20.4375 3.28125 19.9375C3.40625 19.4688 3.59375 19.1563 3.875 19.0313C4.1875 18.9375 4.1875 18.9375 4.53125 18.8125C4.875 18.7188 5.21875 18.8438 5.46875 19.25C5.78125 19.7188 6.25 19.9688 6.78125 19.8125C7.6875 19.625 8.3125 18.5313 8.1875 17.375C8.0625 16.2188 7.25 15.5625 6.40625 15.8438Z" fill="url(#paint15_linear_142_76)"/>
<path fill-rule="evenodd" clip-rule="evenodd" d="M1.81249 21.4063C1.84374 21.1875 1.84374 20.5 1.84374 19.7812C1.84374 19.25 1.84374 18.8438 1.84374 18.6875C1.74999 19.5625 1.74999 20.4688 1.81249 21.4063Z" fill="url(#paint16_linear_142_76)"/>
<path fill-rule="evenodd" clip-rule="evenodd" d="M26.625 7.6875C26 7.71875 25.5312 8 25.3125 8.46875C25.125 8.875 24.7187 9.15625 24.1562 9.21875C23.5625 9.28125 23.5625 9.28125 22.9375 9.34375C22.3437 9.40625 21.8125 9.25 21.375 8.875C20.9062 8.46875 20.1875 8.25 19.4687 8.34375C18.3125 8.53125 17.5312 9.46875 17.6875 10.5C17.875 11.5625 19 12.2812 20.2187 12.0938C20.9687 11.9688 21.5625 11.5312 21.8437 10.9375C22.0625 10.4375 22.5312 10.125 23.0937 10.0625C23.7187 10 23.7187 10 24.3125 9.9375C24.875 9.875 25.4375 10.0625 25.8437 10.4688C26.3437 10.9375 27 11.2187 27.6875 11.1875C28.6875 11.125 29.25 10.2812 28.9062 9.3125C28.625 8.375 27.5937 7.6875 26.625 7.6875Z" fill="url(#paint17_linear_142_76)"/>
<path fill-rule="evenodd" clip-rule="evenodd" d="M14.0937 9.375C13.4062 9.53125 12.8437 10 12.5312 10.5625C12.25 11.0625 11.8125 11.4375 11.2812 11.5625C10.7187 11.7188 10.7188 11.7188 10.1562 11.875C9.65625 12.0313 9.21875 11.9375 8.9375 11.5938C8.625 11.25 8.125 11.125 7.59375 11.3438C6.78125 11.6875 6.125 12.6875 6.09375 13.625C6.09375 14.5938 6.78125 15.1875 7.65625 14.9063C8.21875 14.75 8.75 14.25 9.03125 13.625C9.28125 13.0938 9.6875 12.7188 10.2188 12.5938C10.7812 12.4375 10.7812 12.4375 11.3438 12.2813C11.875 12.125 12.4062 12.25 12.75 12.625C13.1875 13.0625 13.8438 13.2813 14.5938 13.125C15.7812 12.875 16.5938 11.7813 16.4375 10.7188C16.25 9.71875 15.2187 9.125 14.0937 9.375Z" fill="url(#paint18_linear_142_76)"/>
<mask id="mask0_142_76" style="mask-type:luminance" maskUnits="userSpaceOnUse" x="6" y="9" width="11" height="6">
<path d="M14.0937 9.375C13.4062 9.53125 12.8437 10 12.5312 10.5625C12.25 11.0625 11.8125 11.4375 11.2812 11.5625C10.7187 11.7188 10.7188 11.7188 10.1562 11.875C9.65625 12.0313 9.21875 11.9375 8.9375 11.5938C8.625 11.25 8.125 11.125 7.59375 11.3438C6.78125 11.6875 6.125 12.6875 6.09375 13.625C6.09375 14.5938 6.78125 15.1875 7.65625 14.9063C8.21875 14.75 8.75 14.25 9.03125 13.625C9.28125 13.0938 9.6875 12.7188 10.2188 12.5938C10.7812 12.4375 10.7812 12.4375 11.3438 12.2813C11.875 12.125 12.4062 12.25 12.75 12.625C13.1875 13.0625 13.8438 13.2813 14.5938 13.125C15.7812 12.875 16.5938 11.7813 16.4375 10.7188C16.25 9.71875 15.2187 9.125 14.0937 9.375Z" fill="white"/>
</mask>
<g mask="url(#mask0_142_76)">
<path d="M5.125 14.0625L11.75 18.6875L17.4375 10.5625L10.8438 5.90625L5.125 14.0625Z" fill="url(#paint19_linear_142_76)"/>
</g>
<path fill-rule="evenodd" clip-rule="evenodd" d="M4.28125 13.0312C3.96875 13.25 3.65625 13.7187 3.46875 14.2187C3.3125 14.6875 3.09375 15 2.90625 15.1562C2.71875 15.3437 2.71875 15.3437 2.5625 15.5C2.4375 15.6562 2.375 15.625 2.40625 15.4062C2.4375 15.3125 2.4375 15.2187 2.4375 15.2187C2.1875 16.125 2 17.0625 1.875 18C1.875 18 1.875 17.9687 1.875 17.9375C1.9375 17.8125 2.03125 17.4062 2.125 16.9375C2.21875 16.5312 2.34375 16.1875 2.46875 16.0625C2.625 15.9062 2.625 15.9062 2.8125 15.7187C3 15.5625 3.15625 15.625 3.28125 15.9375C3.40625 16.2812 3.6875 16.4375 4.0625 16.2812C4.6875 16 5.25 14.9687 5.25 14C5.3125 13.0937 4.84375 12.6562 4.28125 13.0312Z" fill="url(#paint20_linear_142_76)"/>
<path fill-rule="evenodd" clip-rule="evenodd" d="M22.1562 4.65625C21.5 4.6875 21.0312 4.9375 20.7812 5.3125C20.5625 5.65625 20.1562 5.875 19.5937 5.9375C19 6.03125 19 6.03125 18.4062 6.09375C17.8437 6.1875 17.3437 6.09375 17 5.8125C16.5937 5.53125 15.9687 5.40625 15.3125 5.5625C14.2812 5.8125 13.5 6.59375 13.5312 7.375C13.5937 8.21875 14.5625 8.75 15.6562 8.5C16.3437 8.34375 16.9375 7.9375 17.2187 7.4375C17.4687 7.03125 17.9062 6.75 18.5 6.65625C19.0937 6.5625 19.0937 6.5625 19.6875 6.5C20.25 6.4375 20.7812 6.5625 21.1875 6.875C21.6562 7.25 22.3437 7.46875 23.0312 7.40625C24.0937 7.3125 24.7187 6.59375 24.4375 5.8125C24.1875 5.125 23.1562 4.625 22.1562 4.65625Z" fill="url(#paint21_linear_142_76)"/>
<path fill-rule="evenodd" clip-rule="evenodd" d="M10.6562 6.9375C10.0937 7.15625 9.59375 7.5625 9.28125 8.03125C9 8.4375 8.625 8.78125 8.1875 8.96875C7.75 9.15625 7.75 9.15625 7.34375 9.375C6.96875 9.5625 6.6875 9.5625 6.5625 9.375C6.4375 9.1875 6.15625 9.21875 5.78125 9.46875C5.25 9.90625 4.6875 10.75 4.46875 11.4062C4.28125 12.125 4.59375 12.4375 5.1875 12.0938C5.59375 11.875 6 11.4062 6.28125 10.875C6.53125 10.4375 6.875 10.0938 7.25 9.90625C7.65625 9.71875 7.65625 9.71875 8.125 9.5C8.5625 9.3125 8.9375 9.34375 9.15625 9.625C9.4375 9.9375 9.96875 10.0312 10.5937 9.84375C11.625 9.53125 12.4062 8.5625 12.375 7.71875C12.375 6.96875 11.5937 6.625 10.6562 6.9375Z" fill="url(#paint22_linear_142_76)"/>
<path fill-rule="evenodd" clip-rule="evenodd" d="M2.90624 13.875C2.84374 14.0625 2.90624 14.0625 3.06249 13.8438C3.37499 13.5 3.81249 12.5938 4.03124 11.875C4.21874 11.3438 4.21874 11.1563 4.06249 11.375C3.59374 12.1563 3.21874 13 2.90624 13.875Z" fill="url(#paint23_linear_142_76)"/>
<path fill-rule="evenodd" clip-rule="evenodd" d="M18.2187 2.875C17.625 2.96875 17.125 3.15625 16.8437 3.40625C16.625 3.625 16.2187 3.84375 15.6875 3.9375C15.1875 4.0625 15.1875 4.0625 14.6562 4.1875C14.1875 4.3125 13.7812 4.3125 13.5312 4.1875C13.25 4.0625 12.8125 4.125 12.25 4.3125C11.4375 4.625 10.6875 5.21875 10.5625 5.71875C10.4687 6.28125 11.125 6.5 12.0625 6.1875C12.6562 6 13.1875 5.625 13.5312 5.25C13.7812 4.9375 14.2187 4.6875 14.6875 4.5625C15.2187 4.4375 15.2187 4.4375 15.75 4.3125C16.25 4.21875 16.7187 4.25 17.0312 4.4375C17.4375 4.65625 18.0312 4.78125 18.6875 4.6875C19.7187 4.5625 20.4062 4 20.1875 3.46875C20.0312 3 19.1562 2.75 18.2187 2.875Z" fill="url(#paint24_linear_142_76)"/>
<path fill-rule="evenodd" clip-rule="evenodd" d="M8.71875 6.03125C8.34375 6.28125 7.90625 6.65625 7.59375 6.96875C7.3125 7.28125 7.03125 7.5625 6.75 7.78125C6.46875 8.03125 6.46875 8.03125 6.21875 8.28125C6.09375 8.40625 6 8.5 5.9375 8.5625C5.375 9.25 4.84375 10 4.375 10.75C4.40625 10.7188 4.4375 10.6563 4.5 10.5625C4.71875 10.2813 5 9.875 5.28125 9.46875C5.53125 9.125 5.78125 8.8125 6 8.59375C6.28125 8.34375 6.28125 8.34375 6.53125 8.125C6.8125 7.90625 7.03125 7.8125 7.09375 7.9375C7.21875 8.0625 7.53125 8.0625 8 7.8125C8.78125 7.4375 9.5 6.65625 9.65625 6.09375C9.8125 5.625 9.40625 5.625 8.71875 6.03125Z" fill="url(#paint25_linear_142_76)"/>
<path fill-rule="evenodd" clip-rule="evenodd" d="M14.75 2.78125C14.4688 2.875 14.2188 2.9375 14.0625 3.03125C13.8125 3.15625 13.4375 3.3125 13.0313 3.4375C12.625 3.59375 12.625 3.59375 12.2188 3.78125C11.9063 3.9375 11.6875 4.03125 11.5313 4.09375C10.6563 4.5625 9.8125 5.0625 9.03125 5.65625C8.96875 5.71875 9.28125 5.59375 9.8125 5.28125C10.25 5.03125 10.7188 4.75 11.0625 4.5C11.3438 4.3125 11.7188 4.09375 12.0938 3.9375C12.5 3.78125 12.5 3.78125 12.9375 3.59375C13.3438 3.4375 13.6875 3.375 13.875 3.40625C14.125 3.46875 14.5938 3.40625 15.1563 3.28125C16.0625 3.09375 16.75 2.71875 16.7188 2.5C16.7188 2.375 16.25 2.4375 15.625 2.5625C15.3438 2.625 15.0313 2.71875 14.75 2.78125Z" fill="url(#paint26_linear_142_76)"/>
<defs>
<linearGradient id="paint0_linear_142_76" x1="10.0063" y1="52.5308" x2="33.9341" y2="29.0908" gradientUnits="userSpaceOnUse">
<stop offset="0.0114882" stop-color="#EC1E79"/>
<stop offset="0.5002" stop-color="#BA1E74"/>
<stop offset="0.5752" stop-color="#B21E73"/>
<stop offset="0.6939" stop-color="#9B1F71"/>
<stop offset="0.8414" stop-color="#76216E"/>
<stop offset="1" stop-color="#46236A"/>
</linearGradient>
<linearGradient id="paint1_linear_142_76" x1="10.2405" y1="45.0693" x2="27.1484" y2="28.5061" gradientUnits="userSpaceOnUse">
<stop offset="0.0114882" stop-color="#EC1E79"/>
<stop offset="0.5002" stop-color="#BA1E74"/>
<stop offset="0.5752" stop-color="#B21E73"/>
<stop offset="0.6939" stop-color="#9B1F71"/>
<stop offset="0.8414" stop-color="#76216E"/>
<stop offset="1" stop-color="#46236A"/>
</linearGradient>
<linearGradient id="paint2_linear_142_76" x1="11.1344" y1="48.3666" x2="31.8065" y2="28.1159" gradientUnits="userSpaceOnUse">
<stop offset="0.0114882" stop-color="#EC1E79"/>
<stop offset="0.5002" stop-color="#BA1E74"/>
<stop offset="0.5752" stop-color="#B21E73"/>
<stop offset="0.6939" stop-color="#9B1F71"/>
<stop offset="0.8414" stop-color="#76216E"/>
<stop offset="1" stop-color="#46236A"/>
</linearGradient>
<linearGradient id="paint3_linear_142_76" x1="9.09027" y1="41.3046" x2="23.6042" y2="27.0866" gradientUnits="userSpaceOnUse">
<stop offset="0.0114882" stop-color="#EC1E79"/>
<stop offset="0.5002" stop-color="#BA1E74"/>
<stop offset="0.5752" stop-color="#B21E73"/>
<stop offset="0.6939" stop-color="#9B1F71"/>
<stop offset="0.8414" stop-color="#76216E"/>
<stop offset="1" stop-color="#46236A"/>
</linearGradient>
<linearGradient id="paint4_linear_142_76" x1="10.348" y1="43.6167" x2="29.2719" y2="25.0786" gradientUnits="userSpaceOnUse">
<stop offset="0.0114882" stop-color="#EC1E79"/>
<stop offset="0.5002" stop-color="#BA1E74"/>
<stop offset="0.5752" stop-color="#B21E73"/>
<stop offset="0.6939" stop-color="#9B1F71"/>
<stop offset="0.8414" stop-color="#76216E"/>
<stop offset="1" stop-color="#46236A"/>
</linearGradient>
<linearGradient id="paint5_linear_142_76" x1="7.13152" y1="36.813" x2="19.763" y2="24.439" gradientUnits="userSpaceOnUse">
<stop offset="0.0114882" stop-color="#EC1E79"/>
<stop offset="0.5002" stop-color="#BA1E74"/>
<stop offset="0.5752" stop-color="#B21E73"/>
<stop offset="0.6939" stop-color="#9B1F71"/>
<stop offset="0.8414" stop-color="#76216E"/>
<stop offset="1" stop-color="#46236A"/>
</linearGradient>
<linearGradient id="paint6_linear_142_76" x1="8.3024" y1="38.0952" x2="26.414" y2="20.3528" gradientUnits="userSpaceOnUse">
<stop offset="0.0114882" stop-color="#EC1E79"/>
<stop offset="0.5002" stop-color="#BA1E74"/>
<stop offset="0.5752" stop-color="#B21E73"/>
<stop offset="0.6939" stop-color="#9B1F71"/>
<stop offset="0.8414" stop-color="#76216E"/>
<stop offset="1" stop-color="#46236A"/>
</linearGradient>
<linearGradient id="paint7_linear_142_76" x1="4.73987" y1="32.3519" x2="16.6308" y2="20.7034" gradientUnits="userSpaceOnUse">
<stop offset="0.0114882" stop-color="#EC1E79"/>
<stop offset="0.5002" stop-color="#BA1E74"/>
<stop offset="0.5752" stop-color="#B21E73"/>
<stop offset="0.6939" stop-color="#9B1F71"/>
<stop offset="0.8414" stop-color="#76216E"/>
<stop offset="1" stop-color="#46236A"/>
</linearGradient>
<linearGradient id="paint8_linear_142_76" x1="11.052" y1="37.4723" x2="30.4747" y2="18.4454" gradientUnits="userSpaceOnUse">
<stop offset="0.0114882" stop-color="#EC1E79"/>
<stop offset="0.5002" stop-color="#BA1E74"/>
<stop offset="0.5752" stop-color="#B21E73"/>
<stop offset="0.6939" stop-color="#9B1F71"/>
<stop offset="0.8414" stop-color="#76216E"/>
<stop offset="1" stop-color="#46236A"/>
</linearGradient>
<linearGradient id="paint9_linear_142_76" x1="5.83662" y1="32.2149" x2="23.6949" y2="14.7206" gradientUnits="userSpaceOnUse">
<stop offset="0.0114882" stop-color="#EC1E79"/>
<stop offset="0.5002" stop-color="#BA1E74"/>
<stop offset="0.5752" stop-color="#B21E73"/>
<stop offset="0.6939" stop-color="#9B1F71"/>
<stop offset="0.8414" stop-color="#76216E"/>
<stop offset="1" stop-color="#46236A"/>
</linearGradient>
<linearGradient id="paint10_linear_142_76" x1="2.62372" y1="28.2377" x2="14.9871" y2="16.1263" gradientUnits="userSpaceOnUse">
<stop offset="0.0114882" stop-color="#EC1E79"/>
<stop offset="0.5002" stop-color="#BA1E74"/>
<stop offset="0.5752" stop-color="#B21E73"/>
<stop offset="0.6939" stop-color="#9B1F71"/>
<stop offset="0.8414" stop-color="#76216E"/>
<stop offset="1" stop-color="#46236A"/>
</linearGradient>
<linearGradient id="paint11_linear_142_76" x1="8.71881" y1="31.0544" x2="27.8012" y2="12.361" gradientUnits="userSpaceOnUse">
<stop offset="0.0114882" stop-color="#EC1E79"/>
<stop offset="0.5002" stop-color="#BA1E74"/>
<stop offset="0.5752" stop-color="#B21E73"/>
<stop offset="0.6939" stop-color="#9B1F71"/>
<stop offset="0.8414" stop-color="#76216E"/>
<stop offset="1" stop-color="#46236A"/>
</linearGradient>
<linearGradient id="paint12_linear_142_76" x1="3.36087" y1="26.7054" x2="21.7351" y2="8.70575" gradientUnits="userSpaceOnUse">
<stop offset="0.0114882" stop-color="#EC1E79"/>
<stop offset="0.5002" stop-color="#BA1E74"/>
<stop offset="0.5752" stop-color="#B21E73"/>
<stop offset="0.6939" stop-color="#9B1F71"/>
<stop offset="0.8414" stop-color="#76216E"/>
<stop offset="1" stop-color="#46236A"/>
</linearGradient>
<linearGradient id="paint13_linear_142_76" x1="1.16931" y1="24.5366" x2="15.1186" y2="10.8716" gradientUnits="userSpaceOnUse">
<stop offset="0.0114882" stop-color="#EC1E79"/>
<stop offset="0.5002" stop-color="#BA1E74"/>
<stop offset="0.5752" stop-color="#B21E73"/>
<stop offset="0.6939" stop-color="#9B1F71"/>
<stop offset="0.8414" stop-color="#76216E"/>
<stop offset="1" stop-color="#46236A"/>
</linearGradient>
<linearGradient id="paint14_linear_142_76" x1="5.94047" y1="24.9945" x2="25.3762" y2="5.95494" gradientUnits="userSpaceOnUse">
<stop offset="0.0114882" stop-color="#EC1E79"/>
<stop offset="0.5002" stop-color="#BA1E74"/>
<stop offset="0.5752" stop-color="#B21E73"/>
<stop offset="0.6939" stop-color="#9B1F71"/>
<stop offset="0.8414" stop-color="#76216E"/>
<stop offset="1" stop-color="#46236A"/>
</linearGradient>
<linearGradient id="paint15_linear_142_76" x1="1.23528" y1="22.2303" x2="21.4344" y2="2.44297" gradientUnits="userSpaceOnUse">
<stop offset="0.0114882" stop-color="#EC1E79"/>
<stop offset="0.5002" stop-color="#BA1E74"/>
<stop offset="0.5752" stop-color="#B21E73"/>
<stop offset="0.6939" stop-color="#9B1F71"/>
<stop offset="0.8414" stop-color="#76216E"/>
<stop offset="1" stop-color="#46236A"/>
</linearGradient>
<linearGradient id="paint16_linear_142_76" x1="0.136526" y1="21.704" x2="18.583" y2="3.63357" gradientUnits="userSpaceOnUse">
<stop offset="0.0114882" stop-color="#EC1E79"/>
<stop offset="0.5002" stop-color="#BA1E74"/>
<stop offset="0.5752" stop-color="#B21E73"/>
<stop offset="0.6939" stop-color="#9B1F71"/>
<stop offset="0.8414" stop-color="#76216E"/>
<stop offset="1" stop-color="#46236A"/>
</linearGradient>
<linearGradient id="paint17_linear_142_76" x1="10.1874" y1="22.8457" x2="28.3212" y2="5.08163" gradientUnits="userSpaceOnUse">
<stop offset="0.0114882" stop-color="#EC1E79"/>
<stop offset="0.5002" stop-color="#BA1E74"/>
<stop offset="0.5752" stop-color="#B21E73"/>
<stop offset="0.6939" stop-color="#9B1F71"/>
<stop offset="0.8414" stop-color="#76216E"/>
<stop offset="1" stop-color="#46236A"/>
</linearGradient>
<linearGradient id="paint18_linear_142_76" x1="3.27591" y1="20.0618" x2="23.8926" y2="-0.134589" gradientUnits="userSpaceOnUse">
<stop offset="0.0114882" stop-color="#EC1E79"/>
<stop offset="0.5002" stop-color="#BA1E74"/>
<stop offset="0.5752" stop-color="#B21E73"/>
<stop offset="0.6939" stop-color="#9B1F71"/>
<stop offset="0.8414" stop-color="#76216E"/>
<stop offset="1" stop-color="#46236A"/>
</linearGradient>
<linearGradient id="paint19_linear_142_76" x1="-2.47022" y1="14.5786" x2="33.157" y2="8.67388" gradientUnits="userSpaceOnUse">
<stop offset="0.0114882" stop-color="#EC1E79"/>
<stop offset="0.5002" stop-color="#BA1E74"/>
<stop offset="0.5752" stop-color="#B21E73"/>
<stop offset="0.6939" stop-color="#9B1F71"/>
<stop offset="0.8414" stop-color="#76216E"/>
<stop offset="1" stop-color="#46236A"/>
</linearGradient>
<linearGradient id="paint20_linear_142_76" x1="-0.656313" y1="19.4264" x2="24.3574" y2="-5.07744" gradientUnits="userSpaceOnUse">
<stop offset="0.0114882" stop-color="#EC1E79"/>
<stop offset="0.5002" stop-color="#BA1E74"/>
<stop offset="0.5752" stop-color="#B21E73"/>
<stop offset="0.6939" stop-color="#9B1F71"/>
<stop offset="0.8414" stop-color="#76216E"/>
<stop offset="1" stop-color="#46236A"/>
</linearGradient>
<linearGradient id="paint21_linear_142_76" x1="7.19883" y1="18.2594" x2="26.1483" y2="-0.303807" gradientUnits="userSpaceOnUse">
<stop offset="0.0114882" stop-color="#EC1E79"/>
<stop offset="0.5002" stop-color="#BA1E74"/>
<stop offset="0.5752" stop-color="#B21E73"/>
<stop offset="0.6939" stop-color="#9B1F71"/>
<stop offset="0.8414" stop-color="#76216E"/>
<stop offset="1" stop-color="#46236A"/>
</linearGradient>
<linearGradient id="paint22_linear_142_76" x1="0.899218" y1="16.9988" x2="24.1781" y2="-5.80559" gradientUnits="userSpaceOnUse">
<stop offset="0.0114882" stop-color="#EC1E79"/>
<stop offset="0.5002" stop-color="#BA1E74"/>
<stop offset="0.5752" stop-color="#B21E73"/>
<stop offset="0.6939" stop-color="#9B1F71"/>
<stop offset="0.8414" stop-color="#76216E"/>
<stop offset="1" stop-color="#46236A"/>
</linearGradient>
<linearGradient id="paint23_linear_142_76" x1="-1.17619" y1="17.2583" x2="26.0266" y2="-9.3899" gradientUnits="userSpaceOnUse">
<stop offset="0.0114882" stop-color="#EC1E79"/>
<stop offset="0.5002" stop-color="#BA1E74"/>
<stop offset="0.5752" stop-color="#B21E73"/>
<stop offset="0.6939" stop-color="#9B1F71"/>
<stop offset="0.8414" stop-color="#76216E"/>
<stop offset="1" stop-color="#46236A"/>
</linearGradient>
<linearGradient id="paint24_linear_142_76" x1="4.37637" y1="15.5072" x2="25.0595" y2="-4.75428" gradientUnits="userSpaceOnUse">
<stop offset="0.0114882" stop-color="#EC1E79"/>
<stop offset="0.5002" stop-color="#BA1E74"/>
<stop offset="0.5752" stop-color="#B21E73"/>
<stop offset="0.6939" stop-color="#9B1F71"/>
<stop offset="0.8414" stop-color="#76216E"/>
<stop offset="1" stop-color="#46236A"/>
</linearGradient>
<linearGradient id="paint25_linear_142_76" x1="-1.429" y1="16.5375" x2="27.4078" y2="-11.7114" gradientUnits="userSpaceOnUse">
<stop offset="0.0114882" stop-color="#EC1E79"/>
<stop offset="0.5002" stop-color="#BA1E74"/>
<stop offset="0.5752" stop-color="#B21E73"/>
<stop offset="0.6939" stop-color="#9B1F71"/>
<stop offset="0.8414" stop-color="#76216E"/>
<stop offset="1" stop-color="#46236A"/>
</linearGradient>
<linearGradient id="paint26_linear_142_76" x1="1.70847" y1="15.0605" x2="25.6483" y2="-8.39131" gradientUnits="userSpaceOnUse">
<stop offset="0.0114882" stop-color="#EC1E79"/>
<stop offset="0.5002" stop-color="#BA1E74"/>
<stop offset="0.5752" stop-color="#B21E73"/>
<stop offset="0.6939" stop-color="#9B1F71"/>
<stop offset="0.8414" stop-color="#76216E"/>
<stop offset="1" stop-color="#46236A"/>
</linearGradient>
</defs>
</svg>
