<?xml version="1.0" encoding="UTF-8" standalone="no"?>
<!-- Created with Inkscape (http://www.inkscape.org/) -->

<svg
   width="214.85251mm"
   height="106.71861mm"
   viewBox="0 0 214.85251 106.71861"
   version="1.1"
   id="svg39634"
   inkscape:version="1.1.1 (3bf5ae0d25, 2021-09-20)"
   sodipodi:docname="MoSms.svg"
   xmlns:inkscape="http://www.inkscape.org/namespaces/inkscape"
   xmlns:sodipodi="http://sodipodi.sourceforge.net/DTD/sodipodi-0.dtd"
   xmlns="http://www.w3.org/2000/svg"
   xmlns:svg="http://www.w3.org/2000/svg">
  <sodipodi:namedview
     id="namedview39636"
     pagecolor="#ffffff"
     bordercolor="#666666"
     borderopacity="1.0"
     inkscape:pageshadow="2"
     inkscape:pageopacity="0.0"
     inkscape:pagecheckerboard="0"
     inkscape:document-units="mm"
     showgrid="false"
     showguides="true"
     inkscape:guide-bbox="true"
     inkscape:snap-bbox="true"
     inkscape:snap-bbox-edge-midpoints="true"
     lock-margins="true"
     fit-margin-top="5"
     fit-margin-left="5"
     fit-margin-right="5"
     fit-margin-bottom="5"
     inkscape:zoom="3.6233469"
     inkscape:cx="406.39223"
     inkscape:cy="242.04141"
     inkscape:window-width="1920"
     inkscape:window-height="1010"
     inkscape:window-x="-7"
     inkscape:window-y="-7"
     inkscape:window-maximized="1"
     inkscape:current-layer="layer1" />
  <defs
     id="defs39631" />
  <g
     inkscape:label="Layer 1"
     inkscape:groupmode="layer"
     id="layer1"
     transform="translate(-15.428734,-80.504097)">
    <g
       id="g13110"
       transform="translate(-163.25629,253.11622)">
      <path
         style="color:#000000;fill:#ffa400;-inkscape-stroke:none"
         d="m 206.81932,-141.00781 v 1.05859 h 22.27052 v -1.05859 z"
         id="path13100"
         sodipodi:nodetypes="ccccc" />
      <g
         id="g13108">
        <g
           id="g13106">
          <path
             style="color:#000000;fill:#ffa400;fill-rule:evenodd;stroke-width:0.423332pt;-inkscape-stroke:none"
             d="m 231.53277,-140.47881 -3.66183,2.11666 v -4.23332 z"
             id="path13102" />
          <path
             style="color:#000000;fill:#ffa400;fill-rule:evenodd;-inkscape-stroke:none"
             d="m 227.58789,-143.08398 v 5.21093 l 4.50977,-2.60547 -0.42383,-0.24414 z m 0.56445,0.97656 2.81641,1.6289 -2.81641,1.62696 z"
             id="path13104" />
        </g>
      </g>
    </g>
    <g
       id="g13116"
       transform="matrix(0.61287919,0,0,0.61287919,-66.144848,216.0098)"
       style="fill:#3789ec;stroke:#ffffff">
      <path
         id="path13112"
         style="font-variation-settings:normal;vector-effect:none;fill:#3789ec;fill-opacity:1;stroke:#ffffff;stroke-width:0.273984;stroke-linecap:butt;stroke-linejoin:miter;stroke-miterlimit:4;stroke-dasharray:none;stroke-dashoffset:0;stroke-opacity:1;-inkscape-stroke:none;paint-order:markers fill stroke;stop-color:#000000"
         d="m 186.21067,-174.02627 c -0.4801,0 -0.86661,0.38652 -0.86661,0.86661 v 7.5613 c 0,0.48009 0.38651,0.86661 0.86661,0.86661 h 12.41474 c 0.4801,0 0.86662,-0.38652 0.86662,-0.86661 v -7.5613 c 0,-0.48009 -0.38652,-0.86661 -0.86662,-0.86661 -1.90201,0 -10.73035,0 -12.41474,0 z"
         sodipodi:nodetypes="csssssscc" />
      <path
         id="path13114"
         style="font-variation-settings:normal;vector-effect:none;fill:#3789ec;fill-opacity:1;stroke:#ffffff;stroke-width:0.273984;stroke-linecap:butt;stroke-linejoin:miter;stroke-miterlimit:4;stroke-dasharray:none;stroke-dashoffset:0;stroke-opacity:1;-inkscape-stroke:none;paint-order:markers fill stroke;stop-color:#000000"
         d="m 186.21067,-174.02627 c -0.4801,0 -0.86662,0.38652 -0.86662,0.86661 v 7.5613 c 0,0.48009 0.38652,0.86661 0.86662,0.86661 h 12.41474 c 0.4801,0 0.86661,-0.38652 0.86661,-0.86661 v -7.5613 c 0,-0.23294 -0.0912,-0.44351 -0.23977,-0.59893 0.0472,0.0495 0.0884,0.10472 0.12299,0.16433 l -6.9572,4.19148 -6.95668,-4.19096 c 0.0462,-0.0798 0.10474,-0.1514 0.17311,-0.21239 l 6.78357,4.08709 6.78512,-4.08709 c -0.15312,-0.13677 -0.35534,-0.22014 -0.57775,-0.22014 z m 12.99249,0.22014 c 0.017,0.0152 0.0334,0.031 0.0491,0.0475 -0.0158,-0.0165 -0.0321,-0.0323 -0.0491,-0.0475 z" />
    </g>
    <text
       xml:space="preserve"
       style="font-size:4.23333px;line-height:1.25;font-family:Montserrat;-inkscape-font-specification:'Montserrat, Normal';stroke-width:0.264583"
       x="43.226482"
       y="107.51473"
       id="text13120"><tspan
         sodipodi:role="line"
         id="tspan13118"
         style="stroke-width:0.264583"
         x="43.226482"
         y="107.51473">MO SMS</tspan></text>
    <g
       id="g13180"
       transform="translate(-6.3411491,54.164146)">
      <path
         style="color:#000000;fill:#3789ec;stroke-width:0.44512;-inkscape-stroke:none"
         d="m 215.5787,47.34213 c -1.08245,0 -2.14001,0.237298 -3.1228,0.699849 -2.06008,0.970447 -3.49611,2.867748 -3.98956,5.061505 -1.98116,0.149511 -3.67649,1.55946 -4.08868,3.527925 -0.0639,0.30461 -0.0956,0.614598 -0.0956,0.924147 0,1.240074 0.41005,2.356917 1.22409,3.158443 1.8e-4,1.8e-4 7.3e-4,-1.8e-4 7.3e-4,0 1.7e-4,1.72e-4 -1.9e-4,7.83e-4 0,7.83e-4 1.37851,1.358062 3.21118,1.349273 3.48445,1.349273 h 12.74158 c 0.0416,0 0.0977,-0.0023 0.1617,-0.01127 0.11607,-0.01416 0.11751,-0.01636 0.25212,-0.04437 0.14115,-0.02935 0.33351,-0.07521 0.56248,-0.144315 0.45796,-0.138203 1.06101,-0.368574 1.67704,-0.756354 1.23203,-0.775574 2.51336,-2.27698 2.51336,-4.647687 0.003,-2.898559 -2.23246,-5.276928 -5.06411,-5.550093 -1.32646,-2.190979 -3.65901,-3.567925 -6.25691,-3.567925 z m 0,1.557919 c 2.18658,0 4.13182,1.178389 5.13887,3.100194 l 0.21387,0.407736 0.45991,0.0095 c 2.19347,0.04649 3.95265,1.836076 3.95043,4.041729 v 7.83e-4 c 0,1.842212 -0.863,2.747999 -1.7857,3.328843 -0.46134,0.290422 -0.93794,0.475221 -1.29623,0.583348 -0.17915,0.05408 -0.32862,0.08926 -0.43035,0.110411 -0.0944,0.01964 -0.20266,0.03287 -0.12344,0.02348 h -12.71463 c -0.0952,0 -1.55017,-0.07208 -2.39165,-0.901545 l -7.3e-4,-7.83e-4 c -0.50164,-0.493612 -0.75897,-1.12834 -0.75897,-2.048244 0,-0.202917 0.0212,-0.406892 0.0626,-0.604213 0.28415,-1.357014 1.50209,-2.347314 2.88893,-2.347314 0.0731,0 0.14925,0.0031 0.22256,0.0087 l 0.73462,0.05478 0.0956,-0.729408 c 0.25552,-1.937599 1.50063,-3.650733 3.27495,-4.486851 0.781,-0.36758 1.60259,-0.551183 2.45945,-0.551183 z"
         id="path13168" />
      <path
         id="path13170"
         style="color:#000000;font-variation-settings:normal;vector-effect:none;fill:#3789ec;fill-opacity:1;stroke-width:0.64152;stroke-linecap:butt;stroke-linejoin:miter;stroke-miterlimit:4;stroke-dasharray:none;stroke-dashoffset:0;stroke-opacity:1;-inkscape-stroke:none;paint-order:markers fill stroke;stop-color:#000000"
         d="m 214.75936,50.849664 v 0.16746 0.806312 c -0.28348,0.07703 -0.55411,0.190249 -0.80852,0.337132 l -0.68917,-0.689977 -1.24469,1.244485 0.68937,0.689168 c -0.14684,0.254435 -0.25933,0.526028 -0.33632,0.809533 h -0.97379 v 1.759544 h 0.97379 c 0.0771,0.283641 0.18935,0.554813 0.33632,0.809332 l -0.68937,0.689168 1.24469,1.243883 0.68917,-0.689168 c 0.25441,0.146877 0.52504,0.259912 0.80852,0.336938 v 0.972971 h 1.76036 v -0.972971 c 0.28347,-0.07699 0.55431,-0.190106 0.80872,-0.336938 l 0.68918,0.689168 1.24468,-1.243883 -0.69016,-0.689971 c 0.14681,-0.254384 0.26015,-0.525094 0.33712,-0.808529 h 0.97379 v -1.759544 h -0.97298 c -0.0766,-0.283985 -0.18892,-0.555966 -0.33552,-0.810931 l 0.68776,-0.68777 -1.24469,-1.244485 -0.68757,0.688358 c -0.25477,-0.146495 -0.52659,-0.258993 -0.81033,-0.335513 v -0.973772 z m 0.88017,2.109565 c 1.18053,2.7e-5 2.1339,0.953413 2.13393,2.133925 7e-5,1.180564 -0.95334,2.134494 -2.13393,2.134526 -1.18061,5.2e-5 -2.13376,-0.953904 -2.13372,-2.134526 5e-5,-1.180577 0.95315,-2.133989 2.13372,-2.133925 z" />
      <text
         xml:space="preserve"
         style="font-weight:bold;font-size:4.23333px;line-height:1.25;font-family:Montserrat;-inkscape-font-specification:'Montserrat Bold';fill:#000000;stroke-width:0.264583"
         x="199.3941"
         y="66.739967"
         id="text13174"><tspan
           sodipodi:role="line"
           id="tspan13172"
           style="font-size:4.23333px;fill:#000000;stroke-width:0.264583"
           x="199.3941"
           y="66.739967">Customer SMS</tspan></text>
      <text
         xml:space="preserve"
         style="font-weight:bold;font-size:4.23333px;line-height:1.25;font-family:Montserrat;-inkscape-font-specification:'Montserrat Bold';fill:#000000;stroke-width:0.264583"
         x="203.19351"
         y="70.973297"
         id="text13178"><tspan
           sodipodi:role="line"
           id="tspan13176"
           style="font-size:4.23333px;fill:#000000;stroke-width:0.264583"
           x="203.19351"
           y="70.973297">application</tspan></text>
    </g>
    <g
       id="g13276"
       transform="translate(108.23616,68.78774)">
      <g
         id="g13268"
         transform="matrix(0.67446852,0,0,0.67446852,-469.88683,21.309931)">
        <g
           id="g13186">
          <path
             style="color:#000000;fill:#434d6c;stroke-width:0.529167;stroke-linejoin:round;-inkscape-stroke:none;paint-order:markers fill stroke"
             d="m 576.74652,27.24785 h 11.68541 c 0.61212,0 1.10492,0.492792 1.10492,1.104915 v 11.210732 c 0,0.612123 -0.4928,1.104915 -1.10492,1.104915 h -11.68541 c -0.61213,0 -1.10492,-0.492792 -1.10492,-1.104915 V 28.352765 c 0,-0.612123 0.49279,-1.104915 1.10492,-1.104915 z"
             id="path13182" />
          <path
             style="color:#000000;fill:#ffffff;stroke-linejoin:round;-inkscape-stroke:none;paint-order:markers fill stroke"
             d="m 576.74609,26.982422 c -0.75412,0 -1.36914,0.616969 -1.36914,1.371094 v 11.210937 c 0,0.754125 0.61502,1.369141 1.36914,1.369141 h 11.68555 c 0.75413,0 1.36914,-0.615016 1.36914,-1.369141 V 28.353516 c 0,-0.754125 -0.61501,-1.371094 -1.36914,-1.371094 z m 0,0.529297 h 11.68555 c 0.47012,0 0.83984,0.371677 0.83984,0.841797 v 11.210937 c 0,0.47012 -0.36972,0.839844 -0.83984,0.839844 h -11.68555 c -0.47012,0 -0.83984,-0.369724 -0.83984,-0.839844 V 28.353516 c 0,-0.47012 0.36972,-0.841797 0.83984,-0.841797 z"
             id="path13184" />
        </g>
        <rect
           style="fill:#434d6c;fill-opacity:1;stroke:#ffffff;stroke-width:0.529167;stroke-linejoin:round;stroke-miterlimit:4;stroke-dasharray:none;stroke-opacity:1;paint-order:markers fill stroke"
           id="rect13188"
           width="10.140939"
           height="9.7957153"
           x="577.51874"
           y="29.060274"
           ry="0.7596913" />
        <path
           style="fill:#434d6c;fill-opacity:1;stroke:#ffffff;stroke-width:0.529167;stroke-linecap:butt;stroke-linejoin:miter;stroke-miterlimit:4;stroke-dasharray:none;stroke-opacity:1"
           d="m 579.67644,31.757345 h 4.27215"
           id="path13190" />
        <path
           style="fill:#434d6c;fill-opacity:1;stroke:#ffffff;stroke-width:0.529167;stroke-linecap:butt;stroke-linejoin:miter;stroke-miterlimit:4;stroke-dasharray:none;stroke-opacity:1"
           d="m 579.87062,33.418735 h 2.52444"
           id="path13192" />
        <path
           style="fill:#434d6c;fill-opacity:1;stroke:#ffffff;stroke-width:0.529167;stroke-linecap:butt;stroke-linejoin:miter;stroke-miterlimit:4;stroke-dasharray:none;stroke-opacity:1"
           d="m 582.52451,35.921605 h 2.39501"
           id="path13194" />
        <g
           id="g13200">
          <path
             style="color:#000000;fill:#434d6c;stroke-width:1.05833;-inkscape-stroke:none"
             d="M 582.58925,27.79861 V 23.78539"
             id="path13196" />
          <path
             style="color:#000000;fill:#434d6c;-inkscape-stroke:none"
             d="m 582.06055,23.785156 v 4.013672 h 1.05859 v -4.013672 z"
             id="path13198" />
        </g>
        <g
           id="g13206">
          <path
             style="color:#000000;fill:#434d6c;stroke-width:1.05833;-inkscape-stroke:none"
             d="M 586.82261,27.79861 V 23.78539"
             id="path13202" />
          <path
             style="color:#000000;fill:#434d6c;-inkscape-stroke:none"
             d="m 586.29297,23.785156 v 4.013672 h 1.05859 v -4.013672 z"
             id="path13204" />
        </g>
        <g
           id="g13212">
          <path
             style="color:#000000;fill:#434d6c;stroke-width:1.05833;-inkscape-stroke:none"
             d="M 578.35589,27.79861 V 23.78539"
             id="path13208" />
          <path
             style="color:#000000;fill:#434d6c;-inkscape-stroke:none"
             d="m 577.82617,23.785156 v 4.013672 h 1.0586 v -4.013672 z"
             id="path13210" />
        </g>
        <g
           id="g13218">
          <path
             style="color:#000000;fill:#434d6c;stroke-width:1.05833;-inkscape-stroke:none"
             d="M 582.58924,44.08774 V 40.07452"
             id="path13214" />
          <path
             style="color:#000000;fill:#434d6c;-inkscape-stroke:none"
             d="m 582.06055,40.074219 v 4.013672 h 1.05859 v -4.013672 z"
             id="path13216" />
        </g>
        <g
           id="g13224">
          <path
             style="color:#000000;fill:#434d6c;stroke-width:1.05833;-inkscape-stroke:none"
             d="M 586.8226,44.08774 V 40.07452"
             id="path13220" />
          <path
             style="color:#000000;fill:#434d6c;-inkscape-stroke:none"
             d="m 586.29297,40.074219 v 4.013672 h 1.05859 v -4.013672 z"
             id="path13222" />
        </g>
        <g
           id="g13230">
          <path
             style="color:#000000;fill:#434d6c;stroke-width:1.05833;-inkscape-stroke:none"
             d="M 578.35588,44.08774 V 40.07452"
             id="path13226" />
          <path
             style="color:#000000;fill:#434d6c;-inkscape-stroke:none"
             d="m 577.82617,40.074219 v 4.013672 h 1.0586 v -4.013672 z"
             id="path13228" />
        </g>
        <g
           id="g13236">
          <path
             style="color:#000000;fill:#434d6c;stroke-width:1.00013;-inkscape-stroke:none"
             d="m 589.25638,33.93658 h 4.01322"
             id="path13232" />
          <path
             style="color:#000000;fill:#434d6c;-inkscape-stroke:none"
             d="M 589.25586,33.435547 V 34.4375 h 4.01367 v -1.001953 z"
             id="path13234" />
        </g>
        <g
           id="g13242">
          <path
             style="color:#000000;fill:#434d6c;stroke-width:1.00013;-inkscape-stroke:none"
             d="m 589.25638,38.16994 h 4.01322"
             id="path13238" />
          <path
             style="color:#000000;fill:#434d6c;-inkscape-stroke:none"
             d="m 589.25586,37.669922 v 1 h 4.01367 v -1 z"
             id="path13240" />
        </g>
        <g
           id="g13248">
          <path
             style="color:#000000;fill:#434d6c;stroke-width:1.00013;-inkscape-stroke:none"
             d="m 589.25638,29.70322 h 4.01322"
             id="path13244" />
          <path
             style="color:#000000;fill:#434d6c;-inkscape-stroke:none"
             d="m 589.25586,29.203125 v 1 h 4.01367 v -1 z"
             id="path13246" />
        </g>
        <g
           id="g13254">
          <path
             style="color:#000000;fill:#434d6c;stroke-width:1.00013;-inkscape-stroke:none"
             d="m 571.9089,33.93656 h 4.01322"
             id="path13250" />
          <path
             style="color:#000000;fill:#434d6c;-inkscape-stroke:none"
             d="M 571.9082,33.435547 V 34.4375 h 4.01367 v -1.001953 z"
             id="path13252" />
        </g>
        <g
           id="g13260">
          <path
             style="color:#000000;fill:#434d6c;stroke-width:1.00013;-inkscape-stroke:none"
             d="m 571.9089,38.16992 h 4.01322"
             id="path13256" />
          <path
             style="color:#000000;fill:#434d6c;-inkscape-stroke:none"
             d="m 571.9082,37.669922 v 1 h 4.01367 v -1 z"
             id="path13258" />
        </g>
        <g
           id="g13266">
          <path
             style="color:#000000;fill:#434d6c;stroke-width:1.00013;-inkscape-stroke:none"
             d="m 571.9089,29.7032 h 4.01322"
             id="path13262" />
          <path
             style="color:#000000;fill:#434d6c;-inkscape-stroke:none"
             d="m 571.9082,29.203125 v 1 h 4.01367 v -1 z"
             id="path13264" />
        </g>
      </g>
      <text
         xml:space="preserve"
         id="text13274"
         style="font-style:normal;font-variant:normal;font-weight:normal;font-stretch:normal;font-size:4.23333px;line-height:1;font-family:Montserrat;-inkscape-font-specification:Montserrat;font-variant-ligatures:normal;font-variant-position:normal;font-variant-caps:normal;font-variant-numeric:normal;font-variant-alternates:normal;font-variant-east-asian:normal;font-feature-settings:normal;font-variation-settings:normal;text-indent:0;text-align:start;text-decoration-line:none;text-decoration-style:solid;text-decoration-color:#000000;letter-spacing:normal;word-spacing:normal;text-transform:none;writing-mode:lr-tb;direction:ltr;text-orientation:mixed;dominant-baseline:auto;baseline-shift:baseline;text-anchor:start;white-space:pre;shape-padding:0;shape-margin:0;inline-size:41.3674;vector-effect:none;fill:#000000;fill-opacity:1;stroke:none;stroke-width:0.387221;stroke-linecap:butt;stroke-linejoin:miter;stroke-miterlimit:4;stroke-dasharray:none;stroke-dashoffset:0;stroke-opacity:1;-inkscape-stroke:none;stop-color:#000000"
         x="260.98697"
         y="237.81061"
         transform="translate(-349.14512,-202.06569)"><tspan
           x="260.98697"
           y="237.81061"
           id="tspan1865"><tspan
             style="font-weight:bold"
             id="tspan1863">IoT device</tspan></tspan></text>
    </g>
    <rect
       style="fill:#316094;stroke:none;stroke-width:1;-inkscape-stroke:none;paint-order:markers fill stroke;stop-color:#000000"
       id="rect13398"
       width="50.58691"
       height="44.216152"
       x="72.661049"
       y="90.452965"
       ry="4.033917" />
    <text
       xml:space="preserve"
       style="font-weight:bold;font-size:5.64444px;line-height:1.25;font-family:Montserrat;-inkscape-font-specification:'Montserrat Bold';fill:#ffffff;stroke-width:0.264583"
       x="86.964783"
       y="107.34591"
       id="text13402"><tspan
         sodipodi:role="line"
         id="tspan13400"
         style="fill:#ffffff;stroke-width:0.264583"
         x="86.964783"
         y="107.34591">AnyNet</tspan></text>
    <text
       xml:space="preserve"
       style="font-weight:bold;font-size:5.64444px;line-height:1.25;font-family:Montserrat;-inkscape-font-specification:'Montserrat Bold';fill:#ffffff;stroke-width:0.264583"
       x="81.927139"
       y="114.21204"
       id="text13406"><tspan
         sodipodi:role="line"
         id="tspan13404"
         style="fill:#ffffff;stroke-width:0.264583"
         x="81.927139"
         y="114.21204">Messaging</tspan></text>
    <text
       xml:space="preserve"
       style="font-weight:bold;font-size:5.64444px;line-height:1.25;font-family:Montserrat;-inkscape-font-specification:'Montserrat Bold';fill:#ffffff;stroke-width:0.264583"
       x="87.159531"
       y="121.36887"
       id="text13410"><tspan
         sodipodi:role="line"
         id="tspan13408"
         style="fill:#ffffff;stroke-width:0.264583"
         x="87.159531"
         y="121.36887">Service</tspan></text>
    <rect
       style="font-variation-settings:normal;fill:#c5d4e2;fill-opacity:1;stroke:none;stroke-width:0.553982;stroke-linecap:butt;stroke-linejoin:miter;stroke-miterlimit:4;stroke-dasharray:none;stroke-dashoffset:0;stroke-opacity:1;paint-order:normal;stop-color:#000000"
       id="rect13412"
       width="34.736988"
       height="54.11388"
       x="118.74"
       y="85.504097"
       ry="4.4860063" />
    <path
       id="path13414"
       style="color:#000000;font-variation-settings:normal;vector-effect:none;fill:#ffffff;fill-opacity:1;stroke-width:1.37284;stroke-linecap:butt;stroke-linejoin:miter;stroke-miterlimit:4;stroke-dasharray:none;stroke-dashoffset:0;stroke-opacity:1;-inkscape-stroke:none;paint-order:markers fill stroke;stop-color:#000000"
       d="m 134.2247,99.975623 v 0.358347 1.7255 c -0.60662,0.16483 -1.18576,0.40712 -1.73019,0.72145 l -1.4748,-1.47653 -2.66361,2.66317 1.47523,1.4748 c -0.31423,0.54448 -0.55498,1.12568 -0.71972,1.73237 h -2.08388 v 3.76538 h 2.08388 c 0.16488,0.60698 0.40523,1.18728 0.71972,1.73195 l -1.47523,1.47479 2.66361,2.66188 1.4748,-1.4748 c 0.54444,0.31431 1.12359,0.55622 1.73019,0.72104 v 2.08213 h 3.76713 v -2.08213 c 0.60664,-0.16474 1.18621,-0.40682 1.73066,-0.72104 l 1.47481,1.4748 2.66358,-2.66188 -1.47692,-1.47651 c 0.31415,-0.54437 0.55669,-1.12369 0.72142,-1.73023 h 2.08388 v -3.76538 h -2.08213 c -0.16379,-0.60771 -0.40429,-1.18975 -0.71799,-1.73537 l 1.47177,-1.4718 -2.66359,-2.66317 -1.47138,1.47307 c -0.54519,-0.31349 -1.12689,-0.55424 -1.73408,-0.71799 v -2.083847 z m 1.88357,4.514417 c 2.52627,6e-5 4.56649,2.04027 4.56655,4.56654 1.3e-4,2.52638 -2.04014,4.56776 -4.56655,4.56783 -2.52651,1e-4 -4.5662,-2.04134 -4.56611,-4.56783 7e-5,-2.52641 2.03973,-4.56668 4.56611,-4.56654 z" />
    <text
       xml:space="preserve"
       style="font-weight:bold;font-size:4.93889px;line-height:1.25;font-family:Montserrat;-inkscape-font-specification:'Montserrat Bold';fill:#ffffff;stroke-width:0.316552"
       x="125.55163"
       y="123.84795"
       id="text13418"><tspan
         sodipodi:role="line"
         id="tspan13416"
         style="font-size:4.93889px;fill:#ffffff;stroke-width:0.316552"
         x="125.55163"
         y="123.84795">SMS API</tspan></text>
    <path
       style="color:#000000;fill:#f84064;stroke-width:0.44512;-inkscape-stroke:none"
       d="m 136.0964,157.77027 c -1.08245,0 -2.14001,0.2373 -3.1228,0.69985 -2.06008,0.97045 -3.49611,2.86775 -3.98956,5.0615 -1.98116,0.14951 -3.67649,1.55946 -4.08868,3.52793 -0.0639,0.30461 -0.0956,0.6146 -0.0956,0.92415 0,1.24007 0.41005,2.35691 1.22409,3.15844 1.8e-4,1.8e-4 7.3e-4,-1.8e-4 7.3e-4,0 1.7e-4,1.7e-4 -1.9e-4,7.8e-4 0,7.8e-4 1.37851,1.35806 3.21118,1.34927 3.48445,1.34927 h 12.74158 c 0.0416,0 0.0977,-0.002 0.1617,-0.0113 0.11607,-0.0142 0.11751,-0.0164 0.25212,-0.0444 0.14115,-0.0293 0.33351,-0.0752 0.56248,-0.14431 0.45796,-0.1382 1.06101,-0.36857 1.67704,-0.75635 1.23203,-0.77558 2.51336,-2.27698 2.51336,-4.64769 0.003,-2.89856 -2.23246,-5.27693 -5.06411,-5.55009 -1.32646,-2.19098 -3.65901,-3.56793 -6.25691,-3.56793 z m 0,1.55792 c 2.18658,0 4.13182,1.17839 5.13887,3.10019 l 0.21387,0.40774 0.45991,0.01 c 2.19347,0.0465 3.95265,1.83607 3.95043,4.04173 v 7.8e-4 c 0,1.84221 -0.863,2.748 -1.7857,3.32884 -0.46134,0.29043 -0.93794,0.47522 -1.29623,0.58335 -0.17915,0.0541 -0.32862,0.0893 -0.43035,0.11041 -0.0944,0.0196 -0.20266,0.0329 -0.12344,0.0235 h -12.71463 c -0.0952,0 -1.55017,-0.0721 -2.39165,-0.90154 l -7.3e-4,-7.9e-4 c -0.50164,-0.49361 -0.75897,-1.12833 -0.75897,-2.04824 0,-0.20292 0.0212,-0.40689 0.0626,-0.60421 0.28415,-1.35702 1.50209,-2.34732 2.88893,-2.34732 0.0731,0 0.14925,0.003 0.22256,0.009 l 0.73462,0.0548 0.0956,-0.7294 c 0.25552,-1.9376 1.50063,-3.65074 3.27495,-4.48686 0.781,-0.36758 1.60259,-0.55118 2.45945,-0.55118 z"
       id="path41160" />
    <path
       id="path41162"
       style="color:#000000;font-variation-settings:normal;vector-effect:none;fill:#f84064;fill-opacity:1;stroke-width:0.64152;stroke-linecap:butt;stroke-linejoin:miter;stroke-miterlimit:4;stroke-dasharray:none;stroke-dashoffset:0;stroke-opacity:1;-inkscape-stroke:none;paint-order:markers fill stroke;stop-color:#000000"
       d="m 135.27706,161.2778 v 0.16746 0.80632 c -0.28348,0.077 -0.55411,0.19024 -0.80852,0.33713 l -0.68917,-0.68998 -1.24469,1.24449 0.68937,0.68916 c -0.14684,0.25444 -0.25933,0.52603 -0.33632,0.80954 h -0.97379 v 1.75954 h 0.97379 c 0.0771,0.28364 0.18935,0.55481 0.33632,0.80933 l -0.68937,0.68917 1.24469,1.24388 0.68917,-0.68916 c 0.25441,0.14687 0.52504,0.25991 0.80852,0.33693 v 0.97297 h 1.76036 v -0.97297 c 0.28347,-0.077 0.55431,-0.1901 0.80872,-0.33693 l 0.68918,0.68916 1.24468,-1.24388 -0.69016,-0.68997 c 0.14681,-0.25438 0.26015,-0.52509 0.33712,-0.80853 h 0.97379 v -1.75954 h -0.97298 c -0.0766,-0.28399 -0.18892,-0.55597 -0.33552,-0.81093 l 0.68776,-0.68777 -1.24469,-1.24449 -0.68757,0.68836 c -0.25477,-0.1465 -0.52659,-0.25899 -0.81033,-0.33551 v -0.97378 z m 0.88017,2.10957 c 1.18053,3e-5 2.1339,0.95341 2.13393,2.13392 7e-5,1.18057 -0.95334,2.1345 -2.13393,2.13453 -1.18061,5e-5 -2.13376,-0.9539 -2.13372,-2.13453 5e-5,-1.18057 0.95315,-2.13399 2.13372,-2.13392 z" />
    <text
       xml:space="preserve"
       style="font-weight:bold;font-size:4.23333px;line-height:1.25;font-family:Montserrat;-inkscape-font-specification:'Montserrat Bold';fill:#000000;stroke-width:0.264583"
       x="118.39837"
       y="177.16811"
       id="text41166"><tspan
         sodipodi:role="line"
         id="tspan41164"
         style="font-size:4.23333px;fill:#000000;stroke-width:0.264583"
         x="118.39837"
         y="177.16811">Third-party SMS</tspan></text>
    <text
       xml:space="preserve"
       style="font-weight:bold;font-size:4.23333px;line-height:1.25;font-family:Montserrat;-inkscape-font-specification:'Montserrat Bold';fill:#000000;stroke-width:0.264583"
       x="123.7112"
       y="181.40144"
       id="text41170"><tspan
         sodipodi:role="line"
         id="tspan41168"
         style="font-size:4.23333px;fill:#000000;stroke-width:0.264583"
         x="123.7112"
         y="181.40144">application</tspan></text>
    <g
       id="g41184"
       transform="rotate(-90,324.68208,48.095079)">
      <path
         style="color:#000000;fill:#ffa400;-inkscape-stroke:none"
         d="m 216.11348,-141.00781 v 1.05859 h 12.97636 v -1.05859 z"
         id="path41174"
         sodipodi:nodetypes="ccccc" />
      <g
         id="g41182">
        <g
           id="g41180">
          <path
             style="color:#000000;fill:#ffa400;fill-rule:evenodd;stroke-width:0.423332pt;-inkscape-stroke:none"
             d="m 231.53277,-140.47881 -3.66183,2.11666 v -4.23332 z"
             id="path41176" />
          <path
             style="color:#000000;fill:#ffa400;fill-rule:evenodd;-inkscape-stroke:none"
             d="m 227.58789,-143.08398 v 5.21093 l 4.50977,-2.60547 -0.42383,-0.24414 z m 0.56445,0.97656 2.81641,1.6289 -2.81641,1.62696 z"
             id="path41178" />
        </g>
      </g>
    </g>
    <g
       id="g41190"
       transform="matrix(0.61287919,0,0,0.61287919,18.179477,254.41885)"
       style="fill:#3789ec;stroke:#ffffff">
      <path
         id="path41186"
         style="font-variation-settings:normal;vector-effect:none;fill:#3789ec;fill-opacity:1;stroke:#ffffff;stroke-width:0.273984;stroke-linecap:butt;stroke-linejoin:miter;stroke-miterlimit:4;stroke-dasharray:none;stroke-dashoffset:0;stroke-opacity:1;-inkscape-stroke:none;paint-order:markers fill stroke;stop-color:#000000"
         d="m 186.21067,-174.02627 c -0.4801,0 -0.86661,0.38652 -0.86661,0.86661 v 7.5613 c 0,0.48009 0.38651,0.86661 0.86661,0.86661 h 12.41474 c 0.4801,0 0.86662,-0.38652 0.86662,-0.86661 v -7.5613 c 0,-0.48009 -0.38652,-0.86661 -0.86662,-0.86661 -1.90201,0 -10.73035,0 -12.41474,0 z"
         sodipodi:nodetypes="csssssscc" />
      <path
         id="path41188"
         style="font-variation-settings:normal;vector-effect:none;fill:#3789ec;fill-opacity:1;stroke:#ffffff;stroke-width:0.273984;stroke-linecap:butt;stroke-linejoin:miter;stroke-miterlimit:4;stroke-dasharray:none;stroke-dashoffset:0;stroke-opacity:1;-inkscape-stroke:none;paint-order:markers fill stroke;stop-color:#000000"
         d="m 186.21067,-174.02627 c -0.4801,0 -0.86662,0.38652 -0.86662,0.86661 v 7.5613 c 0,0.48009 0.38652,0.86661 0.86662,0.86661 h 12.41474 c 0.4801,0 0.86661,-0.38652 0.86661,-0.86661 v -7.5613 c 0,-0.23294 -0.0912,-0.44351 -0.23977,-0.59893 0.0472,0.0495 0.0884,0.10472 0.12299,0.16433 l -6.9572,4.19148 -6.95668,-4.19096 c 0.0462,-0.0798 0.10474,-0.1514 0.17311,-0.21239 l 6.78357,4.08709 6.78512,-4.08709 c -0.15312,-0.13677 -0.35534,-0.22014 -0.57775,-0.22014 z m 12.99249,0.22014 c 0.017,0.0152 0.0334,0.031 0.0491,0.0475 -0.0158,-0.0165 -0.0321,-0.0323 -0.0491,-0.0475 z" />
    </g>
    <text
       xml:space="preserve"
       style="font-size:4.23333px;line-height:1.25;font-family:Montserrat;-inkscape-font-specification:'Montserrat, Normal';stroke-width:0.264583"
       x="112.28959"
       y="152.09164"
       id="text41194"><tspan
         sodipodi:role="line"
         id="tspan41192"
         style="stroke-width:0.264583"
         x="112.28959"
         y="152.09164">MT SMS</tspan></text>
    <g
       id="g41416"
       transform="translate(-37.515968,253.00615)">
      <path
         style="color:#000000;fill:#ffa400;-inkscape-stroke:none"
         d="m 194.63365,-141.00781 v 1.05859 h 34.45619 v -1.05859 z"
         id="path41406"
         sodipodi:nodetypes="ccccc" />
      <g
         id="g41414">
        <g
           id="g41412">
          <path
             style="color:#000000;fill:#ffa400;fill-rule:evenodd;stroke-width:0.423332pt;-inkscape-stroke:none"
             d="m 231.53277,-140.47881 -3.66183,2.11666 v -4.23332 z"
             id="path41408" />
          <path
             style="color:#000000;fill:#ffa400;fill-rule:evenodd;-inkscape-stroke:none"
             d="m 227.58789,-143.08398 v 5.21093 l 4.50977,-2.60547 -0.42383,-0.24414 z m 0.56445,0.97656 2.81641,1.6289 -2.81641,1.62696 z"
             id="path41410" />
        </g>
      </g>
    </g>
    <g
       id="g41422"
       transform="matrix(0.61287919,0,0,0.61287919,47.577193,215.89973)"
       style="fill:#3789ec;stroke:#ffffff">
      <path
         id="path41418"
         style="font-variation-settings:normal;vector-effect:none;fill:#3789ec;fill-opacity:1;stroke:#ffffff;stroke-width:0.273984;stroke-linecap:butt;stroke-linejoin:miter;stroke-miterlimit:4;stroke-dasharray:none;stroke-dashoffset:0;stroke-opacity:1;-inkscape-stroke:none;paint-order:markers fill stroke;stop-color:#000000"
         d="m 186.21067,-174.02627 c -0.4801,0 -0.86661,0.38652 -0.86661,0.86661 v 7.5613 c 0,0.48009 0.38651,0.86661 0.86661,0.86661 h 12.41474 c 0.4801,0 0.86662,-0.38652 0.86662,-0.86661 v -7.5613 c 0,-0.48009 -0.38652,-0.86661 -0.86662,-0.86661 -1.90201,0 -10.73035,0 -12.41474,0 z"
         sodipodi:nodetypes="csssssscc" />
      <path
         id="path41420"
         style="font-variation-settings:normal;vector-effect:none;fill:#3789ec;fill-opacity:1;stroke:#ffffff;stroke-width:0.273984;stroke-linecap:butt;stroke-linejoin:miter;stroke-miterlimit:4;stroke-dasharray:none;stroke-dashoffset:0;stroke-opacity:1;-inkscape-stroke:none;paint-order:markers fill stroke;stop-color:#000000"
         d="m 186.21067,-174.02627 c -0.4801,0 -0.86662,0.38652 -0.86662,0.86661 v 7.5613 c 0,0.48009 0.38652,0.86661 0.86662,0.86661 h 12.41474 c 0.4801,0 0.86661,-0.38652 0.86661,-0.86661 v -7.5613 c 0,-0.23294 -0.0912,-0.44351 -0.23977,-0.59893 0.0472,0.0495 0.0884,0.10472 0.12299,0.16433 l -6.9572,4.19148 -6.95668,-4.19096 c 0.0462,-0.0798 0.10474,-0.1514 0.17311,-0.21239 l 6.78357,4.08709 6.78512,-4.08709 c -0.15312,-0.13677 -0.35534,-0.22014 -0.57775,-0.22014 z m 12.99249,0.22014 c 0.017,0.0152 0.0334,0.031 0.0491,0.0475 -0.0158,-0.0165 -0.0321,-0.0323 -0.0491,-0.0475 z" />
    </g>
    <text
       xml:space="preserve"
       style="font-size:4.23333px;line-height:1.25;font-family:Montserrat;-inkscape-font-specification:'Montserrat, Normal';stroke-width:0.264583"
       x="155.14525"
       y="108.05448"
       id="text41426"><tspan
         sodipodi:role="line"
         id="tspan41424"
         style="stroke-width:0.264583"
         x="155.14525"
         y="108.05448">MO SMS messages</tspan></text>
    <path
       id="path41443"
       style="font-variation-settings:normal;vector-effect:none;fill:#3789ec;fill-opacity:1;stroke:#ffffff;stroke-width:0.167919;stroke-linecap:butt;stroke-linejoin:miter;stroke-miterlimit:4;stroke-dasharray:none;stroke-dashoffset:0;stroke-opacity:1;-inkscape-stroke:none;paint-order:markers fill stroke;stop-color:#000000"
       d="m 172.07095,109.24265 c -0.29424,0 -0.53113,0.23689 -0.53113,0.53113 v 4.63416 c 0,0.29424 0.23689,0.53113 0.53113,0.53113 h 7.60874 c 0.29424,0 0.53112,-0.23689 0.53112,-0.53113 v -4.63416 c 0,-0.14277 -0.0559,-0.27182 -0.14695,-0.36707 0.0289,0.0303 0.0542,0.0642 0.0754,0.10071 l -4.26392,2.56887 -4.26361,-2.56855 c 0.0283,-0.0489 0.0642,-0.0928 0.1061,-0.13017 l 4.15751,2.50489 4.15846,-2.50489 c -0.0939,-0.0838 -0.21778,-0.13492 -0.35409,-0.13492 z m 7.96283,0.13492 c 0.0104,0.009 0.0205,0.019 0.0301,0.0291 -0.01,-0.0101 -0.0197,-0.0198 -0.0301,-0.0291 z" />
  </g>
</svg>
